<svg width="24" height="25" viewBox="0 0 24 25" fill="none" xmlns="http://www.w3.org/2000/svg">
<path d="M23.7113 9.2557L19.4249 2.9677C19.1152 2.51311 18.6018 2.2417 18.0515 2.2417H5.9482C5.39789 2.2417 4.88442 2.51311 4.57481 2.96756L0.287902 9.25631C-0.147473 9.89657 -0.0830664 10.7534 0.44048 11.3197L10.7776 22.5159C11.4354 23.2311 12.566 23.2291 13.221 22.5169L23.5588 11.3201C24.063 10.7747 24.1636 9.92085 23.7113 9.2557ZM6.52832 10.9852L10.1913 19.8078L2.04557 10.9852H6.52832ZM13.0136 3.64795L15.881 9.57886H8.11861L10.9859 3.64795H13.0136ZM15.9487 10.9852L11.9998 20.4964L8.05097 10.9851H15.9487V10.9852ZM17.4713 10.9852H21.954L13.8083 19.8078L17.4713 10.9852ZM18.2629 3.75965L22.2297 9.5789H17.443L14.5756 3.648H18.0515C18.1362 3.64795 18.2152 3.68967 18.2629 3.75965ZM5.73684 3.75951C5.78442 3.68967 5.8634 3.648 5.94815 3.648H9.42403L6.55668 9.5789H1.7699L5.73684 3.75951Z" fill="white"/>
</svg>
