<svg width="57" height="57" viewBox="0 0 57 57" fill="none" xmlns="http://www.w3.org/2000/svg">
<rect x="4.83398" y="4.07715" width="48" height="48" rx="24" fill="white"/>
<rect x="4.83398" y="4.07715" width="48" height="48" rx="24" stroke="white" stroke-opacity="0.9" stroke-width="8"/>
<path d="M25.834 28.0771L27.834 30.0771L32.334 25.5771M24.1678 19.8958C24.9716 19.8317 25.7347 19.5156 26.3485 18.9926C27.7807 17.772 29.8873 17.772 31.3195 18.9926C31.9333 19.5156 32.6964 19.8317 33.5002 19.8958C35.376 20.0455 36.8656 21.5351 37.0153 23.4109C37.0794 24.2147 37.3955 24.9779 37.9186 25.5916C39.1391 27.0239 39.1391 29.1304 37.9186 30.5627C37.3955 31.1764 37.0794 31.9395 37.0153 32.7434C36.8656 34.6192 35.376 36.1088 33.5002 36.2585C32.6964 36.3226 31.9333 36.6387 31.3195 37.1617C29.8873 38.3823 27.7807 38.3823 26.3485 37.1617C25.7347 36.6387 24.9716 36.3226 24.1678 36.2585C22.2919 36.1088 20.8024 34.6192 20.6527 32.7434C20.5885 31.9395 20.2724 31.1764 19.7494 30.5627C18.5288 29.1304 18.5288 27.0239 19.7494 25.5916C20.2724 24.9779 20.5885 24.2148 20.6527 23.4109C20.8024 21.5351 22.2919 20.0455 24.1678 19.8958Z" stroke="#0F0F0F" stroke-width="2" stroke-linecap="round" stroke-linejoin="round"/>
</svg>
