<svg width="57" height="57" viewBox="0 0 57 57" fill="none" xmlns="http://www.w3.org/2000/svg">
<rect x="4.16669" y="4.07727" width="48" height="48" rx="24" fill="white"/>
<rect x="4.16669" y="4.07727" width="48" height="48" rx="24" stroke="white" stroke-opacity="0.9" stroke-width="8"/>
<path d="M22.6667 29.0773L23.4511 30.6462C23.7166 31.1772 23.8494 31.4427 24.0267 31.6727C24.1841 31.8769 24.3671 32.0599 24.5712 32.2172C24.8013 32.3946 25.0668 32.5273 25.5978 32.7928L27.1667 33.5773L25.5978 34.3617C25.0668 34.6272 24.8013 34.76 24.5712 34.9373C24.3671 35.0947 24.1841 35.2777 24.0267 35.4818C23.8494 35.7119 23.7166 35.9774 23.4511 36.5084L22.6667 38.0773L21.8822 36.5084C21.6167 35.9774 21.484 35.7119 21.3067 35.4818C21.1493 35.2777 20.9663 35.0947 20.7621 34.9373C20.5321 34.76 20.2666 34.6272 19.7356 34.3617L18.1667 33.5773L19.7356 32.7928C20.2666 32.5273 20.5321 32.3946 20.7621 32.2172C20.9663 32.0599 21.1493 31.8769 21.3067 31.6727C21.484 31.4427 21.6167 31.1772 21.8822 30.6462L22.6667 29.0773Z" stroke="#0F0F0F" stroke-width="2" stroke-linecap="round" stroke-linejoin="round"/>
<path d="M31.1667 18.0773L32.3453 21.1417C32.6273 21.8749 32.7683 22.2415 32.9876 22.5499C33.1819 22.8232 33.4207 23.062 33.694 23.2564C34.0024 23.4756 34.369 23.6166 35.1023 23.8986L38.1667 25.0773L35.1023 26.2559C34.369 26.5379 34.0024 26.6789 33.694 26.8982C33.4207 27.0925 33.1819 27.3313 32.9876 27.6046C32.7683 27.913 32.6273 28.2796 32.3453 29.0129L31.1667 32.0773L29.9881 29.0129C29.7061 28.2796 29.565 27.913 29.3458 27.6046C29.1514 27.3313 28.9126 27.0925 28.6393 26.8982C28.331 26.6789 27.9643 26.5379 27.2311 26.2559L24.1667 25.0773L27.2311 23.8986C27.9643 23.6166 28.3309 23.4756 28.6393 23.2564C28.9126 23.062 29.1514 22.8232 29.3458 22.5499C29.565 22.2415 29.7061 21.8749 29.9881 21.1417L31.1667 18.0773Z" stroke="#0F0F0F" stroke-width="2" stroke-linecap="round" stroke-linejoin="round"/>
</svg>
