<svg width="57" height="57" viewBox="0 0 57 57" fill="none" xmlns="http://www.w3.org/2000/svg">
<rect x="4.5" y="4.07715" width="48" height="48" rx="24" fill="white"/>
<rect x="4.5" y="4.07715" width="48" height="48" rx="24" stroke="white" stroke-opacity="0.9" stroke-width="8"/>
<path d="M30.0295 24.429C29.4571 24.8371 28.7566 25.0771 28 25.0771C26.067 25.0771 24.5 23.5101 24.5 21.5771C24.5 19.6442 26.067 18.0771 28 18.0771C29.253 18.0771 30.3522 18.7356 30.9705 19.7253M22.5 36.1643H25.1103C25.4506 36.1643 25.7889 36.2048 26.1188 36.2858L28.8769 36.956C29.4753 37.1018 30.0988 37.116 30.7035 36.9986L33.753 36.4053C34.5585 36.2483 35.2996 35.8626 35.8803 35.2977L38.0379 33.1989C38.654 32.6005 38.654 31.6296 38.0379 31.0302C37.4832 30.4906 36.6047 30.4298 35.9771 30.8875L33.4626 32.722C33.1025 32.9852 32.6643 33.127 32.2137 33.127H29.7855L31.3311 33.1269C32.2022 33.1269 32.9079 32.4405 32.9079 31.5931V31.2863C32.9079 30.5826 32.4156 29.9691 31.7141 29.799L29.3286 29.2189C28.9404 29.1247 28.5428 29.0771 28.1431 29.0771C27.1783 29.0771 25.4319 29.876 25.4319 29.876L22.5 31.102M36.5 22.5771C36.5 24.5101 34.933 26.0771 33 26.0771C31.067 26.0771 29.5 24.5101 29.5 22.5771C29.5 20.6442 31.067 19.0771 33 19.0771C34.933 19.0771 36.5 20.6442 36.5 22.5771ZM18.5 30.6771L18.5 36.4771C18.5 37.0372 18.5 37.3172 18.609 37.5311C18.7049 37.7193 18.8578 37.8723 19.046 37.9682C19.2599 38.0771 19.5399 38.0771 20.1 38.0771H20.9C21.4601 38.0771 21.7401 38.0771 21.954 37.9682C22.1422 37.8723 22.2951 37.7193 22.391 37.5311C22.5 37.3172 22.5 37.0372 22.5 36.4771V30.6771C22.5 30.1171 22.5 29.8371 22.391 29.6232C22.2951 29.435 22.1422 29.282 21.954 29.1861C21.7401 29.0771 21.4601 29.0771 20.9 29.0771L20.1 29.0771C19.5399 29.0771 19.2599 29.0771 19.046 29.1861C18.8578 29.282 18.7049 29.435 18.609 29.6232C18.5 29.8371 18.5 30.1171 18.5 30.6771Z" stroke="#0F0F0F" stroke-width="2" stroke-linecap="round" stroke-linejoin="round"/>
</svg>
