<svg width="22" height="25" viewBox="0 0 22 25" fill="none" xmlns="http://www.w3.org/2000/svg">
<path d="M21.0577 6.82605C21.0453 6.17808 21.0336 5.56596 21.0336 4.97377C21.0336 4.50983 20.6576 4.13371 20.1935 4.13371C16.6008 4.13371 13.8655 3.10121 11.5855 0.884348C11.2593 0.567141 10.7402 0.567253 10.4142 0.884348C8.13437 3.10121 5.39947 4.13371 1.80703 4.13371C1.34309 4.13371 0.966967 4.50983 0.966967 4.97377C0.966967 5.56607 0.955319 6.17842 0.942886 6.8265C0.827741 12.8566 0.670034 21.115 10.7247 24.6002C10.8138 24.6311 10.9068 24.6466 10.9998 24.6466C11.0927 24.6466 11.1858 24.6311 11.2749 24.6002C21.3303 21.1149 21.1728 12.8562 21.0577 6.82605ZM10.9999 22.915C2.3767 19.7825 2.50708 12.9203 2.62278 6.85853C2.62973 6.49473 2.63645 6.14213 2.64115 5.79647C6.00588 5.65444 8.69654 4.63483 10.9999 2.62832C13.3034 4.63483 15.9945 5.65455 19.3595 5.79647C19.3642 6.14201 19.3709 6.49439 19.3779 6.85797C19.4935 12.92 19.6237 19.7824 10.9999 22.915Z" fill="white"/>
<path d="M13.8926 9.72842L9.83803 13.7828L8.10784 12.0526C7.77977 11.7246 7.24784 11.7246 6.91988 12.0526C6.59181 12.3808 6.59181 12.9126 6.91988 13.2407L9.24405 15.5648C9.40803 15.7288 9.62309 15.8108 9.83803 15.8108C10.053 15.8108 10.268 15.7288 10.432 15.5648L15.0805 10.9165C15.4086 10.5884 15.4086 10.0565 15.0806 9.72853C14.7526 9.40046 14.2207 9.40035 13.8926 9.72842Z" fill="white"/>
</svg>
