<svg width="24" height="25" viewBox="0 0 24 25" fill="none" xmlns="http://www.w3.org/2000/svg">
<g clip-path="url(#clip0_99_26727)">
<path d="M23.0625 11.709H22.1132C21.671 6.84655 17.799 2.97537 12.9375 2.53325V1.58398C12.9375 1.0662 12.5178 0.646484 12 0.646484C11.4822 0.646484 11.0625 1.0662 11.0625 1.58398V2.53325C6.20006 2.97547 2.32889 6.84744 1.88681 11.709H0.9375C0.419719 11.709 0 12.1287 0 12.6465C0 13.1643 0.419719 13.584 0.9375 13.584H1.88681C2.32898 18.4464 6.20095 22.3176 11.0625 22.7597V23.709C11.0625 24.2268 11.4822 24.6465 12 24.6465C12.5178 24.6465 12.9375 24.2268 12.9375 23.709V22.7597C17.7999 22.3175 21.6711 18.4455 22.1132 13.584H23.0625C23.5803 13.584 24 13.1643 24 12.6465C24 12.1287 23.5803 11.709 23.0625 11.709ZM12.9375 20.8744V20.0215C12.9375 19.5037 12.5178 19.084 12 19.084C11.4822 19.084 11.0625 19.5037 11.0625 20.0215V20.8744C7.24388 20.4421 4.20441 17.4026 3.77213 13.584H4.62497C5.14275 13.584 5.56247 13.1643 5.56247 12.6465C5.56247 12.1287 5.14275 11.709 4.62497 11.709H3.77213C4.20441 7.89036 7.24388 4.85089 11.0625 4.41861V5.27145C11.0625 5.78923 11.4822 6.20895 12 6.20895C12.5178 6.20895 12.9375 5.78923 12.9375 5.27145V4.41861C16.7561 4.85089 19.7956 7.89036 20.2279 11.709H19.375C18.8573 11.709 18.4375 12.1287 18.4375 12.6465C18.4375 13.1643 18.8573 13.584 19.375 13.584H20.2279C19.7956 17.4026 16.7561 20.4421 12.9375 20.8744ZM12 8.02147C9.44977 8.02147 7.37498 10.0963 7.37498 12.6465C7.37498 15.1967 9.44977 17.2715 12 17.2715C14.5502 17.2715 16.625 15.1967 16.625 12.6465C16.625 10.0963 14.5502 8.02147 12 8.02147ZM12 15.3965C10.4836 15.3965 9.24998 14.1628 9.24998 12.6465C9.24998 11.1301 10.4836 9.89647 12 9.89647C13.5164 9.89647 14.75 11.1301 14.75 12.6465C14.75 14.1628 13.5164 15.3965 12 15.3965Z" fill="white"/>
</g>
<defs>
<clipPath id="clip0_99_26727">
<rect width="24" height="24" fill="white" transform="translate(0 0.646484)"/>
</clipPath>
</defs>
</svg>
